<?xml version="1.0" standalone="no"?>
<!DOCTYPE svg PUBLIC "-//W3C//DTD SVG 20010904//EN"
 "http://www.w3.org/TR/2001/REC-SVG-20010904/DTD/svg10.dtd">
<svg version="1.0" xmlns="http://www.w3.org/2000/svg"
 width="1200.000000pt" height="1200.000000pt" viewBox="0 0 1200.000000 1200.000000"
 preserveAspectRatio="xMidYMid meet">

<g transform="translate(0.000000,1200.000000) scale(0.100000,-0.100000)"
fill="#32CD32" stroke="none">
<path d="M5590 11959 c-1745 -124 -3332 -989 -4385 -2391 -593 -789 -988
-1737 -1130 -2716 -47 -323 -59 -494 -59 -862 -1 -422 17 -646 80 -1025 221
-1318 906 -2558 1909 -3454 864 -772 1910 -1272 3045 -1455 298 -49 304 -49
895 -53 635 -5 690 -2 1075 63 1384 232 2669 968 3576 2049 828 987 1302 2164
1395 3462 15 215 6 797 -15 998 -35 324 -102 688 -177 961 -359 1311 -1125
2437 -2209 3250 -351 264 -831 540 -1238 712 -610 258 -1272 415 -1952 462
-168 11 -643 11 -810 -1z m820 -1500 c1026 -90 1991 -534 2734 -1259 775 -755
1233 -1712 1347 -2815 19 -179 16 -666 -5 -855 -63 -578 -204 -1066 -451
-1560 -625 -1250 -1789 -2140 -3154 -2410 -325 -64 -449 -75 -871 -74 -413 0
-500 6 -800 60 -1860 333 -3328 1816 -3639 3676 -49 291 -56 385 -56 763 1
270 5 382 18 490 69 556 204 1015 438 1490 768 1561 2381 2546 4109 2509 118
-3 267 -9 330 -15z"/>
</g>
</svg>
