<?xml version="1.0" standalone="no"?>
<!DOCTYPE svg PUBLIC "-//W3C//DTD SVG 20010904//EN"
 "http://www.w3.org/TR/2001/REC-SVG-20010904/DTD/svg10.dtd">
<svg version="1.0" xmlns="http://www.w3.org/2000/svg"
 width="2000.000000pt" height="2000.000000pt" viewBox="0 0 2000.000000 2000.000000"
 preserveAspectRatio="xMidYMid meet">

<g transform="translate(0.000000,2000.000000) scale(0.100000,-0.100000)"
fill="#ff0000" stroke="none">
<path d="M3540 18654 c-259 -31 -460 -102 -662 -235 -80 -53 -175 -144 -664
-633 -481 -481 -580 -585 -630 -661 -108 -164 -173 -321 -216 -519 -31 -144
-31 -398 0 -543 49 -226 148 -438 285 -608 22 -27 1256 -1266 2741 -2752
l2701 -2703 -2721 -2722 c-2466 -2468 -2727 -2732 -2783 -2817 -115 -174 -181
-331 -223 -524 -28 -135 -31 -388 -4 -522 40 -203 136 -428 248 -580 67 -91
1132 -1156 1223 -1223 152 -112 377 -208 580 -248 134 -27 386 -24 525 5 117
25 258 75 370 131 191 96 84 -8 2973 2879 l2717 2716 2703 -2701 c1486 -1485
2725 -2719 2752 -2741 173 -138 384 -237 605 -284 139 -29 391 -32 525 -5 203
40 428 136 580 248 106 78 1121 1093 1209 1208 127 168 219 377 262 595 27
134 24 387 -4 522 -42 193 -108 350 -223 524 -56 85 -317 349 -2783 2817
l-2721 2722 2701 2703 c1485 1486 2719 2725 2741 2752 137 170 237 383 284
608 29 136 32 389 5 522 -24 125 -78 285 -127 380 -100 195 -117 215 -723 821
-489 489 -584 580 -664 633 -166 109 -338 179 -532 217 -139 26 -390 24 -527
-5 -193 -40 -361 -112 -528 -224 -78 -52 -446 -416 -2812 -2781 l-2723 -2721
-2722 2721 c-2367 2365 -2735 2729 -2813 2781 -239 160 -479 239 -757 247 -73
2 -149 2 -168 0z"/>
</g>
</svg>
